Coordinates
version=1
nRows=24
nColumns=26
inDegrees=yes

Units are S.I. units (second, meters, Newtons, ...)
Angles are in degrees.

endheader
time	pelvis_tilt	pelvis_list	pelvis_rotation	pelvis_tx	pelvis_ty	pelvis_tz	hip_flexion_r	hip_adduction_r	hip_rotation_r	knee_angle_r	knee_angle_r_beta	ankle_angle_r	subtalar_angle_r	mtp_angle_r	hip_flexion_l	hip_adduction_l	hip_rotation_l	knee_angle_l	knee_angle_l_beta	ankle_angle_l	subtalar_angle_l	mtp_angle_l	lumbar_extension	lumbar_bending	lumbar_rotation
     32.68108844	    -10.43706580	     -1.46500770	     -2.84923530	      0.14631559	      1.01587498	      0.22533544	     -3.54553196	      1.46027999	      5.29510408	     65.70461156	     65.70461156	    -20.82825741	    -24.98349606	      0.00000000	     32.23001192	     -2.46155458	      2.94696868	     23.46085477	     23.46085477	     -6.48777069	    -18.57113004	      0.00000000	     -5.74428634	     -1.94661909	     12.16688016
     32.69108844	    -10.24365244	     -0.32302104	     -1.88437781	      0.14395165	      1.00746223	      0.22321888	     -1.28793585	      0.25051744	      4.73264501	     72.01230595	     72.01230595	    -20.37586533	    -25.16908409	      0.00000000	     32.17055699	     -0.32730247	      3.40450411	     26.85351271	     26.85351271	     -2.97243180	    -21.64165067	      0.00000000	     -6.29918718	     -3.29097897	     10.37930297
     32.70108844	    -10.50824665	      0.98217949	     -1.10044857	      0.13984635	      0.99829861	      0.22122004	      1.77303349	     -1.20745618	      4.54621855	     78.41329960	     78.41329960	    -19.24757009	    -24.58186183	      0.00000000	     33.27718926	      1.74388208	      3.55739416	     31.13173704	     31.13173704	     -0.26068198	    -23.50371967	      0.00000000	     -6.53640842	     -4.77691787	      8.87214806
     32.71108844	    -10.40785571	      2.27873807	     -0.16619367	      0.13545055	      0.98996562	      0.21897169	      4.45492223	     -2.72714531	      4.39123932	     84.33694164	     84.33694164	    -18.22784272	    -24.38407258	      0.00000000	     34.45411649	      3.70045185	      3.58070420	     36.09946015	     36.09946015	      1.88476924	    -24.25782261	      0.00000000	     -7.34252865	     -6.22676233	      6.99020279
     32.72108844	     -9.64152667	      3.11684044	      0.41333714	      0.13143793	      0.98381765	      0.21751864	      6.42624050	     -3.52453288	      4.82023599	     89.47755918	     89.47755918	    -17.48861917	    -24.52495908	      0.00000000	     34.18748737	      5.09119997	      4.06801766	     40.04521373	     40.04521373	      3.96877157	    -25.28948160	      0.00000000	     -8.98663400	     -7.11286824	      5.80891357
     32.73108844	    -10.47129667	      4.67826648	      0.91409788	      0.12645665	      0.97614426	      0.21624426	     10.57335425	     -5.26193201	      5.62289706	     94.77477475	     94.77477475	    -15.81668625	    -23.62523077	      0.00000000	     34.88075144	      7.06360010	      4.22666232	     42.59154850	     42.59154850	      6.41026742	    -25.02807440	      0.00000000	     -8.84222338	     -8.86981499	      4.17113866
     32.74108844	    -11.25291620	      5.58543839	      1.08154824	      0.12194734	      0.96983973	      0.21616596	     14.78188282	     -5.91059395	      6.96341512	     99.31525039	     99.31525039	    -14.17793340	    -22.47972605	      0.00000000	     34.96849007	      8.01323492	      3.92593887	     44.18672457	     44.18672457	      8.62707937	    -25.02760921	      0.00000000	     -8.61816500	     -9.95675912	      3.29899953
     32.75108844	    -12.27639536	      6.22110594	      1.23330793	      0.11759907	      0.96441863	      0.21616057	     19.35321361	     -6.14467869	      8.32014089	    103.16447333	    103.16447333	    -13.10114269	    -22.10095474	      0.00000000	     34.96520226	      8.61374861	      3.51384977	     45.11749747	     45.11749747	     10.59317280	    -24.85496439	      0.00000000	     -7.99177678	    -10.71994661	      2.41369284
     32.76108844	    -12.89491097	      6.55273216	      1.15456366	      0.11396960	      0.96069236	      0.21641864	     23.47801509	     -5.98563762	      9.61348243	    106.18317532	    106.18317532	    -12.16032029	    -21.85309122	      0.00000000	     34.27569185	      8.78338809	      3.02024921	     45.68213448	     45.68213448	     12.37721476	    -24.70690016	      0.00000000	     -7.65661481	    -11.10419154	      1.76928191
     32.77108844	    -13.10617619	      6.68268588	      0.90119815	      0.11116822	      0.95888896	      0.21681342	     27.07321177	     -5.60176697	     10.73312331	    108.27924192	    108.27924192	    -11.31858189	    -21.50061699	      0.00000000	     32.86616026	      8.64306498	      2.56603428	     45.87116313	     45.87116313	     14.17571888	    -23.97362745	      0.00000000	     -7.64929008	    -11.21600276	      1.22442729
     32.78108844	    -12.95123901	      6.80790995	      0.57467580	      0.10910306	      0.95922002	      0.21736881	     30.11536690	     -5.20028311	     11.63395860	    109.44009308	    109.44009308	    -10.84949788	    -21.44821752	      0.00000000	     30.72243536	      8.47082937	      2.21984959	     45.48789572	     45.48789572	     15.70578844	    -22.92374470	      0.00000000	     -7.98554756	    -11.27850907	      0.53483559
     32.79108844	    -12.76994807	      6.63052714	      0.12197017	      0.10755380	      0.96094928	      0.21820085	     32.95738056	     -4.39883954	     12.24520100	    109.76815737	    109.76815737	    -10.56544276	    -21.52913047	      0.00000000	     28.33651575	      8.06283762	      2.22741304	     44.69934197	     44.69934197	     16.51129565	    -22.56178265	      0.00000000	     -8.23657038	    -10.92957203	     -0.16545550
     32.80108844	    -12.79333911	      6.29684699	     -0.34277866	      0.10641469	      0.96372549	      0.21911235	     35.82146688	     -3.41840237	     12.53945429	    109.43316489	    109.43316489	     -9.90755712	    -21.53605477	      0.00000000	     25.91934333	      7.51731571	      2.31752792	     43.40231687	     43.40231687	     16.84769344	    -22.11153029	      0.00000000	     -8.19150910	    -10.34362885	     -1.00105203
     32.81108844	    -12.99041777	      5.82711867	     -0.74617207	      0.10559417	      0.96734131	      0.21966812	     38.61369090	     -2.43403717	     12.46919462	    108.40089130	    108.40089130	     -9.11323891	    -21.57827631	      0.00000000	     23.52859550	      6.95857378	      2.59516111	     41.77784222	     41.77784222	     16.73537940	    -21.66242173	      0.00000000	     -7.87224809	     -9.50065641	     -1.95047324
     32.82108844	    -12.81241125	      4.73135140	     -0.87145314	      0.10551529	      0.97296649	      0.22007365	     40.50803619	     -1.14292494	     11.52658566	    106.38800806	    106.38800806	     -8.31793350	    -21.60022766	      0.00000000	     20.46923384	      5.88399534	      3.31956722	     39.65839925	     39.65839925	     16.13978249	    -21.56395924	      0.00000000	     -8.03659418	     -7.90583849	     -3.29691509
     32.83108844	    -13.00356151	      3.59358385	     -0.92054436	      0.10583164	      0.97877344	      0.22063823	     42.56453217	      0.04716614	     10.28632537	    103.81942170	    103.81942170	     -7.75184960	    -21.80866544	      0.00000000	     17.68516266	      4.74804957	      4.08601881	     37.20298313	     37.20298313	     14.81798302	    -21.50470786	      0.00000000	     -7.71589950	     -6.30212370	     -4.73980405
     32.84108844	    -13.29063353	      2.28493167	     -0.97808724	      0.10668237	      0.98514200	      0.22132087	     44.39315727	      1.29015220	      8.80862414	    100.60020680	    100.60020680	     -7.37690288	    -22.14125216	      0.00000000	     14.98970577	      3.39623926	      4.89675360	     34.60879100	     34.60879100	     12.73099212	    -21.65440558	      0.00000000	     -7.24442535	     -4.50103998	     -6.11169282
     32.85108844	    -13.83187409	      0.78133562	     -0.96342234	      0.10785478	      0.99155448	      0.22212110	     46.16643302	      2.56830573	      7.08461361	     96.84219513	     96.84219513	     -6.89090912	    -22.20284593	      0.00000000	     12.66266069	      1.72607034	      5.56718016	     32.07712912	     32.07712912	     10.24903929	    -21.36207084	      0.00000000	     -6.48207264	     -2.49397501	     -7.42735153
     32.86108844	    -14.40953466	     -0.84465656	     -1.00764389	      0.10956217	      0.99816314	      0.22310595	     47.62212069	      3.90117051	      5.28533464	     92.50746617	     92.50746617	     -6.60434583	    -22.42380980	      0.00000000	     10.41525580	     -0.18097946	      5.97696725	     29.51339064	     29.51339064	      7.41513264	    -20.80701767	      0.00000000	     -5.63998054	     -0.34358115	     -8.48848923
     32.87108844	    -14.98049432	     -2.40452912	     -1.07205724	      0.11161590	      1.00476983	      0.22425810	     48.74171594	      5.13424474	      3.56477950	     87.65461867	     87.65461867	     -6.62392582	    -23.04212321	      0.00000000	      8.25145965	     -2.09536669	      6.11006404	     26.95634132	     26.95634132	      4.25825638	    -20.22001339	      0.00000000	     -4.79864554	      1.70750268	     -9.42914147
     32.88108844	    -15.58810216	     -3.95499757	     -1.21255032	      0.11395417	      1.01114477	      0.22550788	     49.56860637	      6.34452911	      1.93592237	     82.29554577	     82.29554577	     -6.77892252	    -23.65866054	      0.00000000	      6.22297286	     -4.07852534	      5.81339615	     24.45811744	     24.45811744	      0.83257354	    -19.21924511	      0.00000000	     -3.90712290	      3.73579388	    -10.23894644
     32.89108844	    -16.05777797	     -5.32592368	     -1.39911165	      0.11639889	      1.01736483	      0.22678869	     49.94120619	      7.43217215	      0.58566353	     76.48419983	     76.48419983	     -7.26678866	    -24.35488530	      0.00000000	      4.14480422	     -5.89988267	      5.10188024	     22.00182702	     22.00182702	     -2.78643886	    -17.77918787	      0.00000000	     -3.19644196	      5.57466603	    -10.92134111
     32.90108844	    -16.67897773	     -6.42135128	     -1.64036430	      0.11866177	      1.02281431	      0.22796649	     50.22525830	      8.30475526	     -0.37926343	     70.32206807	     70.32206807	     -7.55692806	    -24.44412554	      0.00000000	      2.43381985	     -7.40561580	      4.06142800	     19.83449868	     19.83449868	     -6.56380113	    -16.43787875	      0.00000000	     -2.34357306	      7.12260449	    -11.48108860
     32.91108844	    -17.17667272	     -7.10789586	     -1.97990414	      0.12101492	      1.02779170	      0.22896675	     50.10482408	      8.88390191	     -0.89542759	     63.83316301	     63.83316301	     -7.87280054	    -24.39044521	      0.00000000	      0.69528899	     -8.43282491	      2.74931262	     17.81421072	     17.81421072	    -10.48721407	    -15.13629279	      0.00000000	     -1.65423091	      8.24292164	    -11.86537209
